HIERARCHY
ROOT Hips
{
	OFFSET 0.0000 0.0000 0.0000
	CHANNELS 6 Xposition Yposition Zposition Zrotation Xrotation Yrotation
	JOINT Ab
	{
		OFFSET -0.0000 8.1305 -0.0000
		CHANNELS 3 Zrotation Xrotation Yrotation
		JOINT Chest
		{
			OFFSET -0.0000 26.2902 -0.0000
			CHANNELS 3 Zrotation Xrotation Yrotation
			JOINT Neck
			{
				OFFSET -0.0000 26.2902 0.0000
				CHANNELS 3 Zrotation Xrotation Yrotation
				JOINT Head
				{
					OFFSET -0.0000 10.8167 0.0000
					CHANNELS 3 Zrotation Xrotation Yrotation
					End Site
					{
						OFFSET -0.0000 16.7167 0.0000
					}
				}
			}
			JOINT LeftCollar
			{
				OFFSET -0.0000 26.2902 0.0000
				CHANNELS 3 Zrotation Xrotation Yrotation
				JOINT LeftShoulder
				{
					OFFSET 19.6667 -0.0000 0.0000
					CHANNELS 3 Zrotation Xrotation Yrotation
					JOINT LeftElbow
					{
						OFFSET 27.2190 0.0000 0.0000
						CHANNELS 3 Zrotation Xrotation Yrotation
						JOINT LeftWrist
						{
							OFFSET 30.7431 0.0000 0.0000
							CHANNELS 3 Zrotation Xrotation Yrotation
							End Site
							{
								OFFSET 0.0000 -14.7500 0.0000
							}
						}
					}
				}
			}
			JOINT RightCollar
			{
				OFFSET -0.0000 26.2902 0.0000
				CHANNELS 3 Zrotation Xrotation Yrotation
				JOINT RightShoulder
				{
					OFFSET -19.6667 0.0000 0.0000
					CHANNELS 3 Zrotation Xrotation Yrotation
					JOINT RightElbow
					{
						OFFSET -27.2190 0.0000 0.0000
						CHANNELS 3 Zrotation Xrotation Yrotation
						JOINT RightWrist
						{
							OFFSET -30.7431 0.0000 0.0000
							CHANNELS 3 Zrotation Xrotation Yrotation
							End Site
							{
								OFFSET -0.0000 -14.7500 0.0000
							}
						}
					}
				}
			}
		}
	}
	JOINT LeftHip
	{
		OFFSET 11.8000 0.0000 0.0000
		CHANNELS 3 Zrotation Xrotation Yrotation
		JOINT LeftKnee
		{
			OFFSET -0.0000 -39.7832 0.0000
			CHANNELS 3 Zrotation Xrotation Yrotation
			JOINT LeftAnkle
			{
				OFFSET -0.0000 -41.7317 0.0000
				CHANNELS 3 Zrotation Xrotation Yrotation
				End Site
				{
					OFFSET -0.0000 -4.9167 16.7167
				}
			}
		}
	}
	JOINT RightHip
	{
		OFFSET -11.8000 0.0000 0.0000
		CHANNELS 3 Zrotation Xrotation Yrotation
		JOINT RightKnee
		{
			OFFSET -0.0000 -39.7832 0.0000
			CHANNELS 3 Zrotation Xrotation Yrotation
			JOINT RightAnkle
			{
				OFFSET -0.0000 -41.7317 0.0000
				CHANNELS 3 Zrotation Xrotation Yrotation
				End Site
				{
					OFFSET -0.0000 -4.9167 16.7167
				}
			}
		}
	}
}
MOTION
Frames: 12
Frame Time: 0.010000
-1.2374 85.7843 72.8401 357.8949 351.2519 173.4223 358.5244 348.2117 3.7611 1.2716 10.3646 3.7973 352.8738 346.1577 0.2463 359.2289 6.2079 1.1559 336.2899 357.2721 12.9923 316.2532 40.8671 3.9412 1.5741 359.2536 321.6081 84.0083 357.6847 333.6487 27.4303 356.2650 344.7932 25.4467 52.6550 25.3136 330.8146 344.3844 56.2617 263.2593 353.3060 358.6885 353.4681 327.2286 2.0913 356.9329 20.0785 357.6679 359.4131 354.6033 23.7741 1.3781 19.4798 5.3981 5.4829 15.5123 16.4511 0.4172 333.5953 329.2292 
-1.1750 85.7690 71.3880 357.3768 351.3398 173.5792 357.7151 348.1711 3.5976 1.2715 10.4005 3.7181 353.0629 345.8610 0.2590 359.0381 6.3323 1.1676 336.0033 357.2055 13.1059 316.7622 41.1873 3.1945 1.9098 359.2195 321.5105 84.4150 357.5997 334.1721 27.6135 356.2132 344.6016 26.4256 52.5481 24.1333 331.4169 345.0632 55.3327 263.4405 353.4638 359.0947 352.8217 326.8573 0.1624 356.2347 22.4135 358.6530 0.0357 354.3668 24.6971 0.8463 19.2416 5.1369 5.4168 17.5587 16.1838 1.9117 334.1758 330.2486 
-1.1256 85.8002 69.9738 356.8137 351.3393 173.8123 356.8422 348.1388 3.4634 1.3519 10.3397 3.6706 353.0786 345.6875 0.1869 358.9222 6.3228 1.1083 335.7133 357.1551 13.1404 317.3218 41.5852 2.3212 2.2188 359.1200 321.4302 84.0506 357.6161 334.4480 27.7600 356.1534 344.4414 27.8488 51.9762 22.3993 332.2526 345.8886 54.5052 264.1345 353.6177 0.1781 352.1826 326.5819 358.1294 355.2752 24.2964 0.2680 0.7732 354.3943 24.4141 0.2820 18.6097 4.8593 5.4387 20.0756 15.8352 3.6235 335.0024 331.2739 
-1.0823 85.8527 68.5660 356.3810 351.4169 174.1416 356.1300 348.2325 3.3289 1.3679 10.2904 3.6042 353.1185 345.5082 0.0878 358.9129 6.2900 1.0139 335.4918 357.1418 12.9798 317.7218 41.9766 1.5776 2.5434 359.0023 321.2741 84.1462 357.5303 334.6367 27.8183 356.1181 344.3313 29.8461 51.3685 20.1465 333.0419 346.5906 53.6585 264.6926 353.6229 1.2123 351.6171 326.5364 357.2061 354.7757 25.9632 0.7650 1.5938 354.4410 24.0563 359.8070 17.8178 4.1599 5.4980 22.9567 15.9652 5.4574 336.2256 332.0332 
-1.0701 85.9197 67.1475 356.0506 351.5297 174.5073 355.7238 348.2718 3.1772 1.1559 10.4730 3.5060 353.3468 345.0016 0.0182 358.5583 6.6138 0.9708 335.4809 357.1675 12.8926 317.9845 42.4573 0.6188 3.0443 358.7834 321.1157 84.2125 357.4982 334.7934 27.8506 356.0865 344.3088 31.8589 50.7083 17.9081 333.8267 347.2503 52.7779 265.2501 353.7507 2.3816 351.0208 326.8059 356.5973 354.5615 27.2182 0.8896 2.2931 354.4350 24.1498 359.2722 16.9134 3.3342 5.7626 25.9983 15.9712 6.9789 337.9330 332.6579 
-1.0673 85.9830 65.7571 355.7857 351.7078 174.7627 355.4652 348.4673 3.1023 0.8925 10.4867 3.4767 353.3283 344.8522 0.0039 358.5110 6.6787 0.9767 335.5115 357.1848 12.9029 318.1489 43.1046 359.6788 3.6994 358.4969 320.9166 84.2737 357.5348 335.2922 27.9056 356.0827 344.4216 33.6837 50.0896 15.6849 334.6578 347.9123 51.8794 266.0144 354.0845 3.5765 350.4829 327.3820 356.4041 354.6008 28.1504 0.5290 3.0913 354.3710 24.3017 358.6240 15.8598 2.4629 6.1937 29.2325 15.5869 8.5548 340.1066 333.5734 
-1.0596 86.0257 64.3170 355.6525 352.0558 174.9567 355.4425 348.7397 3.0541 0.4960 10.5827 3.4550 353.5794 344.5441 0.0795 358.1386 7.2010 1.0649 335.6511 357.1840 12.9068 318.3340 43.7720 358.6660 4.3771 358.2276 320.7122 84.1577 357.3336 335.5576 27.9879 356.1068 344.5957 35.4576 49.5114 13.4099 335.4854 348.5483 51.0322 266.6504 354.5707 4.5256 350.0652 328.4927 356.5594 354.8580 28.5984 359.8062 4.0030 354.0451 24.5927 357.9986 14.8682 1.5982 6.7004 32.4825 14.9379 10.4397 342.5563 334.4990 
-1.0578 86.0751 62.9229 355.5815 352.4011 175.1375 355.4523 349.1233 3.0211 0.2021 10.4900 3.4331 353.6520 344.6472 0.0963 358.0319 7.3633 1.0765 335.8004 357.2226 12.8932 318.3669 44.4330 357.7790 4.9864 357.9944 320.2797 84.4713 357.3630 336.2562 28.0300 356.1380 344.7197 36.9543 48.8750 11.3297 336.4701 349.2400 50.1790 267.2817 354.7987 5.5360 349.6783 329.6355 357.0321 355.3948 28.9903 358.8204 4.7784 353.5260 24.7574 357.3905 13.6844 0.8239 7.1932 35.9468 14.1769 11.3729 345.7331 335.4861 
-1.0543 86.1289 61.5352 355.4626 352.7371 175.1664 355.3984 349.5202 3.0309 359.9801 10.2777 3.4550 353.7175 344.8536 0.1592 357.9186 7.5611 1.1332 335.9088 357.2244 13.0533 318.5134 45.1569 356.7876 5.5897 357.7535 319.7907 84.9706 357.3165 337.1086 28.2144 356.1670 345.1112 38.4086 47.9896 8.7717 337.5143 349.8932 49.5656 268.0792 355.1034 7.0296 349.3569 330.9232 357.3792 355.6833 29.0277 358.5009 5.4472 353.0242 24.7256 356.6952 12.3391 0.3634 7.8121 39.5213 13.1654 10.7321 349.1853 336.3412 
-1.0293 86.1840 60.1998 355.3320 353.0065 175.1551 355.3281 349.8970 2.9925 359.6881 9.9955 3.4311 354.0414 345.1222 0.2540 357.6977 7.7392 1.1883 336.0349 357.1970 13.3164 318.9407 46.0756 355.5328 6.2879 357.4462 319.3252 85.3898 357.1188 337.9472 28.4043 356.1960 345.2866 39.4594 47.4927 6.9332 338.4094 350.4187 48.5463 269.1866 355.4161 8.9734 349.1157 332.2117 357.4530 355.7388 28.8484 358.6887 6.0682 352.6541 24.4844 356.0003 10.7432 359.9090 8.4735 43.3201 12.3863 8.9883 352.3297 336.6907 
-1.0007 86.2396 58.8420 355.2589 353.3733 175.2344 355.3463 350.3061 2.8716 359.3997 9.9234 3.3147 354.1756 345.2638 0.3649 357.7146 7.8519 1.2748 336.3175 357.1966 13.5067 318.9513 46.8277 354.4175 7.1771 357.0371 318.5753 85.6305 357.0711 339.0487 28.4405 356.2371 345.3143 40.3947 47.0396 5.5536 339.2646 350.9893 47.4034 269.8755 356.0882 10.5457 348.8578 333.5678 358.1205 356.2414 28.8486 358.0496 6.2825 351.9963 24.4620 355.2469 9.3357 0.2451 10.2654 46.5460 11.5242 7.5632 354.8907 335.9886 
-0.9561 86.3119 57.4951 355.1413 353.6499 175.2381 355.2578 350.6152 2.7662 359.1988 9.7734 3.2209 354.2315 345.5473 0.4821 357.9132 7.8993 1.3596 336.4549 357.1644 13.7929 319.2989 47.6642 353.2540 8.0090 356.6382 317.7394 86.4577 356.9932 340.1156 28.4468 356.2624 345.3893 41.4013 46.7724 4.1566 339.9555 351.4864 46.0886 270.5842 356.3300 11.8353 348.7096 334.9248 358.5237 356.4044 28.5714 358.0283 6.5804 351.5142 24.1802 354.6353 7.6866 0.2973 11.7074 49.9604 10.6856 6.6042 354.9715 335.0571 
